<svg xmlns="http://www.w3.org/2000/svg" viewBox="0 0 16 16" shape-rendering="crispEdges">
<rect x="5" y="1" width="6" height="1" fill="#C0C0C0"/>
<rect x="4" y="2" width="1" height="1" fill="#C0C0C0"/>
<rect x="11" y="2" width="1" height="1" fill="#C0C0C0"/>
<rect x="4" y="3" width="1" height="1" fill="#A0A0A0"/>
<rect x="11" y="3" width="1" height="1" fill="#A0A0A0"/>
<rect x="5" y="4" width="1" height="1" fill="#A0A0A0"/>
<rect x="10" y="4" width="1" height="1" fill="#A0A0A0"/>
<rect x="6" y="5" width="4" height="1" fill="#8B0000"/>
<rect x="5" y="6" width="6" height="1" fill="#CC0000"/>
<rect x="5" y="7" width="6" height="1" fill="#CC0000"/>
<rect x="5" y="8" width="6" height="1" fill="#8B0000"/>
<rect x="6" y="9" width="4" height="1" fill="#8B0000"/>
<rect x="6" y="10" width="4" height="1" fill="#660000"/>
<rect x="7" y="11" width="2" height="1" fill="#660000"/>
<rect x="7" y="12" width="2" height="1" fill="#440000"/>
</svg>