<svg xmlns="http://www.w3.org/2000/svg" viewBox="0 0 16 16" shape-rendering="crispEdges">
  <!-- bow limb (dark, purple tint) -->
  <rect x="3" y="0" width="1" height="16" fill="#3A2050"/>
  <rect x="4" y="0" width="1" height="1" fill="#3A2050"/>
  <rect x="4" y="15" width="1" height="1" fill="#3A2050"/>
  <rect x="2" y="1" width="1" height="1" fill="#3A2050"/>
  <rect x="2" y="14" width="1" height="1" fill="#3A2050"/>
  <!-- glow highlights -->
  <rect x="3" y="4" width="1" height="1" fill="#8844CC"/>
  <rect x="3" y="11" width="1" height="1" fill="#8844CC"/>
  <!-- bowstring (purple) -->
  <rect x="4" y="0" width="1" height="1" fill="#AA66EE"/>
  <rect x="5" y="1" width="1" height="4" fill="#AA66EE"/>
  <rect x="6" y="5" width="1" height="6" fill="#AA66EE"/>
  <rect x="5" y="11" width="1" height="4" fill="#AA66EE"/>
  <rect x="4" y="15" width="1" height="1" fill="#AA66EE"/>
  <!-- arrow -->
  <rect x="7" y="7" width="6" height="1" fill="#5A3070"/>
  <rect x="13" y="6" width="1" height="1" fill="#CC88FF"/>
  <rect x="13" y="8" width="1" height="1" fill="#CC88FF"/>
  <rect x="14" y="7" width="2" height="1" fill="#CC88FF"/>
</svg>
