<svg xmlns="http://www.w3.org/2000/svg" viewBox="0 0 16 16" shape-rendering="crispEdges">
  <!-- body -->
  <rect x="4" y="3" width="8" height="9" fill="#2A5A2A"/>
  <!-- thorns -->
  <rect x="3" y="4" width="1" height="1" fill="#88CC44"/>
  <rect x="3" y="7" width="1" height="1" fill="#88CC44"/>
  <rect x="12" y="5" width="1" height="1" fill="#88CC44"/>
  <rect x="12" y="8" width="1" height="1" fill="#88CC44"/>
  <rect x="5" y="2" width="1" height="1" fill="#88CC44"/>
  <rect x="10" y="2" width="1" height="1" fill="#88CC44"/>
  <!-- vine pattern -->
  <rect x="5" y="5" width="1" height="1" fill="#3A7A3A"/>
  <rect x="7" y="6" width="1" height="1" fill="#3A7A3A"/>
  <rect x="9" y="5" width="1" height="1" fill="#3A7A3A"/>
  <rect x="6" y="8" width="1" height="1" fill="#3A7A3A"/>
  <rect x="10" y="7" width="1" height="1" fill="#3A7A3A"/>
  <!-- collar -->
  <rect x="6" y="2" width="4" height="1" fill="#1A4A1A"/>
  <!-- shoulders -->
  <rect x="3" y="3" width="1" height="2" fill="#2A5A2A"/>
  <rect x="12" y="3" width="1" height="2" fill="#2A5A2A"/>
</svg>
