<svg xmlns="http://www.w3.org/2000/svg" viewBox="0 0 16 16" shape-rendering="crispEdges">
<rect x="5" y="4" width="6" height="1" fill="#408030"/>
<rect x="4" y="5" width="2" height="1" fill="#408030"/>
<rect x="10" y="5" width="2" height="1" fill="#408030"/>
<rect x="4" y="6" width="1" height="1" fill="#509040"/>
<rect x="11" y="6" width="1" height="1" fill="#509040"/>
<rect x="4" y="7" width="1" height="1" fill="#509040"/>
<rect x="11" y="7" width="1" height="1" fill="#509040"/>
<rect x="7" y="6" width="2" height="2" fill="#60C050"/>
<rect x="4" y="8" width="1" height="1" fill="#509040"/>
<rect x="11" y="8" width="1" height="1" fill="#509040"/>
<rect x="4" y="9" width="1" height="1" fill="#408030"/>
<rect x="11" y="9" width="1" height="1" fill="#408030"/>
<rect x="4" y="10" width="2" height="1" fill="#408030"/>
<rect x="10" y="10" width="2" height="1" fill="#408030"/>
<rect x="5" y="11" width="6" height="1" fill="#408030"/>
</svg>