<svg xmlns="http://www.w3.org/2000/svg" viewBox="0 0 16 32" shape-rendering="crispEdges">
  <rect x="5" y="1" width="6" height="1" fill="#C8C0B8"/>
  <rect x="4" y="2" width="8" height="4" fill="#C8C0B8"/>
  <rect x="5" y="6" width="6" height="1" fill="#C8C0B8"/>
  <rect x="7" y="7" width="2" height="1" fill="#988880"/>
  <rect x="5" y="8" width="6" height="5" fill="#C8C0B8"/>
  <rect x="7" y="13" width="2" height="3" fill="#988880"/>
  <rect x="3" y="8" width="2" height="1" fill="#C8C0B8"/>
  <rect x="2" y="9" width="2" height="5" fill="#988880"/>
  <rect x="11" y="8" width="2" height="1" fill="#C8C0B8"/>
  <rect x="12" y="9" width="2" height="5" fill="#988880"/>
  <rect x="5" y="16" width="6" height="2" fill="#988880"/>
  <rect x="5" y="18" width="3" height="6" fill="#C8C0B8"/>
  <rect x="8" y="18" width="3" height="6" fill="#C8C0B8"/>
  <rect x="4" y="24" width="4" height="2" fill="#988880"/>
  <rect x="8" y="24" width="4" height="2" fill="#988880"/>
  <rect x="7" y="8" width="2" height="8" fill="#6B4226"/>
</svg>