<svg xmlns="http://www.w3.org/2000/svg" viewBox="0 0 16 32" shape-rendering="crispEdges">
  <rect x="6" y="1" width="5" height="1" fill="#D0D0C8"/>
  <rect x="5" y="2" width="7" height="4" fill="#D0D0C8"/>
  <rect x="6" y="6" width="5" height="1" fill="#D0D0C8"/>
  <rect x="9" y="4" width="2" height="1" fill="#1E1E1E"/>
  <rect x="8" y="6" width="3" height="1" fill="#A0A098"/>
  <rect x="7" y="7" width="2" height="1" fill="#B8B8B0"/>
  <rect x="6" y="8" width="5" height="5" fill="#D0D0C8"/>
  <rect x="7" y="9" width="1" height="3" fill="#A0A098"/>
  <rect x="9" y="9" width="1" height="3" fill="#A0A098"/>
  <rect x="7" y="13" width="2" height="3" fill="#B8B8B0"/>
  <rect x="10" y="9" width="2" height="5" fill="#B8B8B0"/>
  <rect x="6" y="16" width="5" height="2" fill="#B8B8B0"/>
  <!-- Legs together -->
  <rect x="6" y="18" width="3" height="6" fill="#D0D0C8"/>
  <rect x="7" y="20" width="1" height="3" fill="#A0A098"/>
  <rect x="5" y="24" width="4" height="2" fill="#B8B8B0"/>
  <rect x="12" y="8" width="1" height="6" fill="#8B7355"/>
  <rect x="11" y="7" width="3" height="1" fill="#8B7355"/>
  <rect x="12" y="3" width="1" height="4" fill="#A0A0A0"/>
</svg>
