<svg xmlns="http://www.w3.org/2000/svg" viewBox="0 0 32 32" shape-rendering="crispEdges">
  <rect x="11" y="0" width="10" height="2" fill="#505050"/>
  <rect x="10" y="2" width="12" height="6" fill="#606060"/>
  <rect x="14" y="8" width="4" height="1" fill="#B8B8B0"/>
  <rect x="9" y="9" width="14" height="6" fill="#555555"/>
  <rect x="10" y="9" width="12" height="1" fill="#666666"/>
  <rect x="6" y="9" width="3" height="4" fill="#555555"/>
  <rect x="23" y="9" width="3" height="4" fill="#555555"/>
  <rect x="6" y="13" width="3" height="6" fill="#B8B8B0"/>
  <rect x="23" y="13" width="3" height="6" fill="#B8B8B0"/>
  <rect x="5" y="19" width="4" height="2" fill="#505050"/>
  <rect x="23" y="19" width="4" height="2" fill="#505050"/>
  <rect x="10" y="15" width="12" height="2" fill="#8B4513"/>
  <rect x="14" y="15" width="4" height="2" fill="#DAA520"/>
  <rect x="10" y="17" width="5" height="8" fill="#555555"/>
  <rect x="17" y="17" width="5" height="8" fill="#555555"/>
  <rect x="9" y="25" width="6" height="3" fill="#505050"/>
  <rect x="17" y="25" width="6" height="3" fill="#505050"/>
  <rect x="14" y="4" width="4" height="5" fill="#A0A0A0"/>
</svg>