<svg xmlns="http://www.w3.org/2000/svg" viewBox="0 0 16 32" shape-rendering="crispEdges">
  <!-- Skull back -->
  <rect x="5" y="2" width="6" height="1" fill="#B8B8B0"/>
  <rect x="4" y="3" width="8" height="4" fill="#B8B8B0"/>
  <rect x="5" y="7" width="6" height="1" fill="#B8B8B0"/>
  <rect x="5" y="3" width="6" height="1" fill="#A0A098"/>
  <!-- Neck -->
  <rect x="7" y="8" width="2" height="1" fill="#A0A098"/>
  <!-- Ribcage back -->
  <rect x="5" y="9" width="6" height="2" fill="#B8B8B0"/>
  <rect x="6" y="11" width="4" height="3" fill="#B8B8B0"/>
  <rect x="7" y="10" width="2" height="3" fill="#A0A098"/>
  <!-- Spine -->
  <rect x="7" y="14" width="2" height="3" fill="#A0A098"/>
  <!-- Arms -->
  <rect x="3" y="9" width="2" height="1" fill="#B8B8B0"/>
  <rect x="2" y="10" width="2" height="5" fill="#A0A098"/>
  <rect x="2" y="15" width="2" height="1" fill="#8A8A80"/>
  <rect x="11" y="9" width="2" height="1" fill="#B8B8B0"/>
  <rect x="12" y="10" width="2" height="5" fill="#A0A098"/>
  <rect x="12" y="15" width="2" height="1" fill="#8A8A80"/>
  <!-- Pelvis -->
  <rect x="5" y="17" width="6" height="2" fill="#A0A098"/>
  <!-- Legs -->
  <rect x="5" y="19" width="3" height="6" fill="#B8B8B0"/>
  <rect x="8" y="19" width="3" height="6" fill="#B8B8B0"/>
  <rect x="6" y="21" width="1" height="3" fill="#8A8A80"/>
  <rect x="9" y="21" width="1" height="3" fill="#8A8A80"/>
  <!-- Feet -->
  <rect x="4" y="25" width="4" height="2" fill="#A0A098"/>
  <rect x="8" y="25" width="4" height="2" fill="#A0A098"/>
  <!-- Weapon -->
  <rect x="1" y="13" width="1" height="6" fill="#8B7355"/>
  <rect x="0" y="12" width="3" height="1" fill="#8B7355"/>
  <rect x="1" y="8" width="1" height="4" fill="#A0A0A0"/>
</svg>
