<svg xmlns="http://www.w3.org/2000/svg" viewBox="0 0 16 32" shape-rendering="crispEdges">
  <!-- Squished variant - wider, shorter -->
  <!-- Body top -->
  <rect x="5" y="10" width="6" height="1" fill="#66BB6A"/>
  <rect x="4" y="11" width="8" height="1" fill="#4CAF50"/>
  <!-- Eyes -->
  <rect x="5" y="12" width="2" height="1" fill="#1E1E1E"/>
  <rect x="9" y="12" width="2" height="1" fill="#1E1E1E"/>
  <!-- Body middle -->
  <rect x="3" y="12" width="10" height="2" fill="#4CAF50"/>
  <!-- Belly highlight -->
  <rect x="6" y="13" width="4" height="2" fill="#81C784"/>
  <!-- Mouth -->
  <rect x="7" y="14" width="2" height="1" fill="#388E3C"/>
  <!-- Body lower -->
  <rect x="2" y="14" width="12" height="4" fill="#4CAF50"/>
  <rect x="6" y="14" width="4" height="2" fill="#81C784"/>
  <!-- Body base -->
  <rect x="3" y="18" width="10" height="2" fill="#4CAF50"/>
  <rect x="4" y="20" width="8" height="1" fill="#388E3C"/>
  <!-- Side shading -->
  <rect x="2" y="14" width="1" height="4" fill="#388E3C"/>
  <rect x="13" y="14" width="1" height="4" fill="#388E3C"/>
  <!-- Bottom shading -->
  <rect x="3" y="19" width="1" height="1" fill="#388E3C"/>
  <rect x="12" y="19" width="1" height="1" fill="#388E3C"/>
</svg>
