<svg xmlns="http://www.w3.org/2000/svg" viewBox="0 0 16 32" shape-rendering="crispEdges">
  <!-- Normal stance with slight magical glow - frame 0 -->
  <!-- Magic shimmer particles -->
  <rect x="2" y="5" width="1" height="1" fill="#AAEEFF"/>
  <rect x="13" y="3" width="1" height="1" fill="#AAEEFF"/>
  <rect x="1" y="15" width="1" height="1" fill="#AAEEFF"/>
  <rect x="14" y="20" width="1" height="1" fill="#AAEEFF"/>
  <!-- Hood -->
  <rect x="6" y="0" width="4" height="1" fill="#7A1818"/>
  <rect x="5" y="1" width="6" height="1" fill="#7A1818"/>
  <rect x="4" y="2" width="8" height="2" fill="#7A1818"/>
  <rect x="5" y="2" width="6" height="1" fill="#8B2020"/>
  <!-- Eyes row -->
  <rect x="4" y="4" width="8" height="1" fill="#7A1818"/>
  <rect x="5" y="4" width="6" height="1" fill="#1E1E32"/>
  <rect x="6" y="4" width="1" height="1" fill="#AAEEFF"/>
  <rect x="9" y="4" width="1" height="1" fill="#AAEEFF"/>
  <!-- Hood sides -->
  <rect x="4" y="5" width="1" height="2" fill="#7A1818"/>
  <rect x="11" y="5" width="1" height="2" fill="#7A1818"/>
  <!-- Face -->
  <rect x="5" y="5" width="6" height="2" fill="#E8B888"/>
  <rect x="6" y="6" width="4" height="1" fill="#D4A070"/>
  <!-- Neck -->
  <rect x="6" y="7" width="4" height="1" fill="#D4A070"/>
  <!-- Staff at side -->
  <rect x="13" y="8" width="1" height="1" fill="#FFD700"/>
  <rect x="13" y="9" width="1" height="1" fill="#DAA520"/>
  <rect x="13" y="10" width="1" height="8" fill="#4A3020"/>
  <!-- Robe body -->
  <rect x="5" y="8" width="6" height="2" fill="#8B2020"/>
  <rect x="6" y="8" width="4" height="2" fill="#A03030"/>
  <rect x="5" y="8" width="1" height="2" fill="#DAA520"/>
  <rect x="10" y="8" width="1" height="2" fill="#DAA520"/>
  <!-- Robe torso -->
  <rect x="5" y="10" width="6" height="8" fill="#8B2020"/>
  <rect x="6" y="10" width="4" height="8" fill="#A03030"/>
  <rect x="5" y="10" width="1" height="8" fill="#DAA520"/>
  <rect x="10" y="10" width="1" height="8" fill="#DAA520"/>
  <!-- Arms -->
  <rect x="3" y="10" width="2" height="6" fill="#7A1818"/>
  <rect x="3" y="16" width="2" height="1" fill="#D4A878"/>
  <rect x="11" y="10" width="2" height="6" fill="#7A1818"/>
  <rect x="12" y="16" width="1" height="1" fill="#D4A878"/>
  <!-- Robe bottom -->
  <rect x="5" y="18" width="6" height="1" fill="#B8860B"/>
  <rect x="4" y="19" width="8" height="8" fill="#6A1818"/>
  <rect x="5" y="19" width="6" height="8" fill="#7A1818"/>
  <rect x="7" y="20" width="1" height="6" fill="#6A1818"/>
  <!-- Gold hem -->
  <rect x="4" y="26" width="8" height="1" fill="#B8860B"/>
  <!-- Boots -->
  <rect x="4" y="27" width="4" height="4" fill="#2A2A3A"/>
  <rect x="8" y="27" width="4" height="4" fill="#2A2A3A"/>
  <rect x="4" y="31" width="4" height="1" fill="#1E1E28"/>
  <rect x="8" y="31" width="4" height="1" fill="#1E1E28"/>
</svg>