<svg xmlns="http://www.w3.org/2000/svg" viewBox="0 0 16 32" shape-rendering="crispEdges">
  <!-- Hood top -->
  <rect x="5" y="0" width="6" height="1" fill="#7A1818"/>
  <rect x="4" y="1" width="8" height="1" fill="#7A1818"/>
  <rect x="4" y="2" width="8" height="3" fill="#8B2020"/>
  <!-- Hood back (no face visible) -->
  <rect x="4" y="5" width="8" height="2" fill="#7A1818"/>
  <rect x="5" y="7" width="6" height="1" fill="#7A1818"/>
  <!-- Hood bottom edge -->
  <rect x="5" y="8" width="6" height="1" fill="#6A1818"/>
  <!-- Gold collar -->
  <rect x="5" y="9" width="6" height="1" fill="#DAA520"/>
  <!-- Robe back -->
  <rect x="4" y="10" width="8" height="2" fill="#A03030"/>
  <rect x="5" y="12" width="6" height="4" fill="#8B2020"/>
  <rect x="6" y="12" width="4" height="4" fill="#7A1818"/>
  <!-- Gold trim center back -->
  <rect x="7" y="10" width="2" height="6" fill="#B8860B"/>
  <!-- Sleeves left -->
  <rect x="2" y="10" width="3" height="1" fill="#8B2020"/>
  <rect x="2" y="11" width="3" height="2" fill="#7A1818"/>
  <rect x="2" y="13" width="2" height="1" fill="#7A1818"/>
  <!-- Sleeves right -->
  <rect x="11" y="10" width="3" height="1" fill="#8B2020"/>
  <rect x="11" y="11" width="3" height="2" fill="#7A1818"/>
  <rect x="12" y="13" width="2" height="1" fill="#7A1818"/>
  <!-- Hands -->
  <rect x="2" y="14" width="2" height="1" fill="#D4A878"/>
  <rect x="12" y="14" width="2" height="1" fill="#D4A878"/>
  <!-- Robe lower back -->
  <rect x="4" y="16" width="8" height="2" fill="#8B2020"/>
  <rect x="5" y="18" width="6" height="4" fill="#6A1818"/>
  <rect x="7" y="16" width="2" height="6" fill="#7A1818"/>
  <!-- Gold hem -->
  <rect x="5" y="22" width="6" height="1" fill="#DAA520"/>
  <!-- Robe bottom -->
  <rect x="4" y="23" width="8" height="4" fill="#6A1818"/>
  <rect x="5" y="27" width="6" height="1" fill="#6A1818"/>
  <!-- Gold bottom trim -->
  <rect x="4" y="27" width="8" height="1" fill="#B8860B"/>
  <!-- Feet -->
  <rect x="4" y="28" width="3" height="2" fill="#2A2A3A"/>
  <rect x="9" y="28" width="3" height="2" fill="#2A2A3A"/>
  <rect x="4" y="30" width="3" height="1" fill="#1E1E2E"/>
  <rect x="9" y="30" width="3" height="1" fill="#1E1E2E"/>
  <!-- Staff shaft (right side, shifted down 1px for bob) -->
  <rect x="13" y="3" width="1" height="13" fill="#4A3020"/>
  <rect x="14" y="5" width="1" height="9" fill="#3A2818"/>
  <!-- Staff orb (shifted down 1px for idle bob) -->
  <rect x="12" y="1" width="3" height="1" fill="#DAA520"/>
  <rect x="12" y="2" width="3" height="2" fill="#FFD700"/>
  <rect x="13" y="2" width="1" height="1" fill="#FFEC80"/>
</svg>