<svg xmlns="http://www.w3.org/2000/svg" viewBox="0 0 16 32" shape-rendering="crispEdges">
  <rect x="1" y="10" width="2" height="8" fill="#B8B8CC"/>
  <rect x="1" y="10" width="4" height="1" fill="#7A7A8E"/>
  <rect x="2" y="8" width="2" height="2" fill="#6B4423"/>
  <rect x="5" y="10" width="5" height="9" fill="#6E6E82"/>
  <rect x="8" y="13" width="2" height="5" fill="#2844A0"/>
  <rect x="9" y="13" width="1" height="5" fill="#3858C0"/>
  <rect x="6" y="0" width="4" height="1" fill="#505064"/>
  <rect x="5" y="1" width="6" height="1" fill="#505064"/>
  <rect x="4" y="2" width="8" height="4" fill="#505064"/>
  <rect x="5" y="6" width="6" height="1" fill="#505064"/>
  <rect x="5" y="2" width="3" height="1" fill="#6E6E82"/>
  <rect x="4" y="4" width="8" height="1" fill="#1E1E32"/>
  <rect x="10" y="4" width="1" height="1" fill="#88CCFF"/>
  <rect x="8" y="7" width="3" height="1" fill="#E8B888"/>
  <rect x="7" y="8" width="3" height="1" fill="#D4A070"/>
  <rect x="6" y="9" width="3" height="1" fill="#D4A070"/>
  <rect x="3" y="10" width="7" height="1" fill="#8888A0"/>
  <rect x="3" y="11" width="7" height="1" fill="#6E6E82"/>
  <rect x="3" y="12" width="2" height="6" fill="#4A4A58"/>
  <rect x="9" y="8" width="3" height="6" fill="#5A5A6E"/>
  <rect x="9" y="8" width="2" height="1" fill="#D4A878"/>
  <rect x="5" y="19" width="5" height="1" fill="#7A5030"/>
  <rect x="4" y="20" width="3" height="7" fill="#3E3E50"/>
  <rect x="6" y="20" width="3" height="7" fill="#4A4A5E"/>
  <rect x="3" y="27" width="4" height="5" fill="#2A2A3A"/>
  <rect x="6" y="27" width="4" height="5" fill="#363646"/>
  <rect x="6" y="31" width="4" height="1" fill="#2A2A3A"/>
</svg>
