<svg xmlns="http://www.w3.org/2000/svg" viewBox="0 0 16 32" shape-rendering="crispEdges">
  <!-- Helmet -->
  <rect x="6" y="0" width="4" height="1" fill="#505064"/>
  <rect x="5" y="1" width="6" height="1" fill="#505064"/>
  <rect x="4" y="2" width="8" height="4" fill="#505064"/>
  <rect x="5" y="6" width="6" height="1" fill="#505064"/>
  <rect x="5" y="2" width="3" height="1" fill="#6E6E82"/>
  <rect x="4" y="4" width="8" height="1" fill="#1E1E32"/>
  <rect x="6" y="4" width="1" height="1" fill="#88CCFF"/>
  <rect x="9" y="4" width="1" height="1" fill="#88CCFF"/>
  <!-- Face -->
  <rect x="5" y="7" width="6" height="2" fill="#E8B888"/>
  <rect x="6" y="8" width="4" height="1" fill="#D4A070"/>
  <rect x="6" y="9" width="4" height="1" fill="#D4A070"/>
  <!-- Armor body -->
  <rect x="5" y="10" width="6" height="9" fill="#6E6E82"/>
  <rect x="6" y="13" width="4" height="5" fill="#2844A0"/>
  <rect x="7" y="13" width="2" height="5" fill="#3858C0"/>
  <!-- Arms extended right - sword out -->
  <rect x="1" y="10" width="4" height="1" fill="#8888A0"/>
  <rect x="1" y="11" width="4" height="1" fill="#6E6E82"/>
  <rect x="1" y="12" width="3" height="4" fill="#5A5A6E"/>
  <rect x="10" y="10" width="4" height="1" fill="#8888A0"/>
  <rect x="10" y="11" width="4" height="1" fill="#6E6E82"/>
  <rect x="11" y="12" width="3" height="4" fill="#5A5A6E"/>
  <!-- Hands -->
  <rect x="1" y="16" width="2" height="1" fill="#D4A878"/>
  <rect x="13" y="12" width="1" height="4" fill="#D4A878"/>
  <!-- Sword extended right -->
  <rect x="14" y="10" width="2" height="1" fill="#B8B8CC"/>
  <rect x="14" y="11" width="2" height="1" fill="#B8B8CC"/>
  <rect x="14" y="12" width="1" height="1" fill="#7A7A8E"/>
  <!-- Belt and legs -->
  <rect x="5" y="19" width="6" height="1" fill="#7A5030"/>
  <rect x="5" y="20" width="6" height="7" fill="#4A4A5E"/>
  <rect x="7" y="21" width="1" height="5" fill="#3E3E50"/>
  <rect x="4" y="27" width="4" height="5" fill="#363646"/>
  <rect x="8" y="27" width="4" height="5" fill="#363646"/>
  <rect x="4" y="31" width="4" height="1" fill="#2A2A3A"/>
  <rect x="8" y="31" width="4" height="1" fill="#2A2A3A"/>
</svg>
